<svg xmlns="http://www.w3.org/2000/svg" viewBox="0 0 600 600">
  <defs>
    <radialGradient id="card-bg" cx="0.5" cy="0.42" r="0.75">
      <stop offset="0" stop-color="#f7efdf"/>
      <stop offset="1" stop-color="#e3d3b4"/>
    </radialGradient>
    
  <filter id="card-grain" x="0" y="0" width="100%" height="100%">
    <feTurbulence type="fractalNoise" baseFrequency="0.85" numOctaves="2" stitchTiles="stitch"/>
    <feColorMatrix values="0 0 0 0 0.4  0 0 0 0 0.3  0 0 0 0 0.2  0 0 0 0.16 0"/>
  </filter>
    <radialGradient id="br-fill" cx="0.38" cy="0.3" r="0.85"><stop offset="0" stop-color="#8a3d34"/><stop offset="0.6" stop-color="#5e2822"/><stop offset="1" stop-color="#3b1814"/></radialGradient>
  </defs>
  <rect width="600" height="600" fill="url(#card-bg)"/>
  <circle cx="300" cy="290" r="210" fill="#e7d8bb" opacity="0.7"/>
  <ellipse cx="300" cy="455" rx="190" ry="20" fill="#3a2410" opacity="0.14"/>
  <path d="M150 330 C 132 250, 290 206, 432 238 C 508 256, 506 322, 446 348 C 360 384, 196 384, 150 330 Z" fill="url(#br-fill)"/>
   <path d="M196 352 C 250 378, 380 378, 430 352 L 426 372 C 370 398, 250 398, 200 372 Z" fill="#3f1b17"/>
   <path d="M300 222 l 4 -18" stroke="#3f1b17" stroke-width="6" stroke-linecap="round"/>
   <path d="M200 270 C 260 240, 360 236, 420 256" fill="none" stroke="#fff" stroke-opacity="0.12" stroke-width="10" stroke-linecap="round"/>
  <rect width="600" height="600" filter="url(#card-grain)"/>
</svg>
