<svg xmlns="http://www.w3.org/2000/svg" viewBox="0 0 600 600">
  <defs>
    <radialGradient id="card-bg" cx="0.5" cy="0.42" r="0.75">
      <stop offset="0" stop-color="#f7efdf"/>
      <stop offset="1" stop-color="#e3d3b4"/>
    </radialGradient>
    
  <filter id="card-grain" x="0" y="0" width="100%" height="100%">
    <feTurbulence type="fractalNoise" baseFrequency="0.85" numOctaves="2" stitchTiles="stitch"/>
    <feColorMatrix values="0 0 0 0 0.4  0 0 0 0 0.3  0 0 0 0 0.2  0 0 0 0.16 0"/>
  </filter>
    <linearGradient id="g1-fill" x1="0" y1="0" x2="1" y2="0"><stop offset="0" stop-color="#d9c08c"/><stop offset="0.35" stop-color="#f1e3c0"/><stop offset="1" stop-color="#b8975e"/></linearGradient>
  <linearGradient id="g1-sheen" x1="0" y1="0" x2="1" y2="0">
    <stop offset="0" stop-color="#000" stop-opacity="0.12"/>
    <stop offset="0.3" stop-color="#fff8e4" stop-opacity="0.35"/>
    <stop offset="0.55" stop-color="#fff8e4" stop-opacity="0"/>
    <stop offset="1" stop-color="#3a2410" stop-opacity="0.32"/>
  </linearGradient>
  </defs>
  <rect width="600" height="600" fill="url(#card-bg)"/>
  <circle cx="300" cy="290" r="210" fill="#e7d8bb" opacity="0.7"/>
  <ellipse cx="300" cy="455" rx="190" ry="20" fill="#3a2410" opacity="0.14"/>
  <path d="M190 382 C 194.4 491, 405.6 491, 410 382" fill="none" stroke="#7d2f2a" stroke-width="4.8" stroke-linecap="round"/><path d="M300 130 L80 370 A220 60 0 0 0 520 370 Z" fill="url(#g1-fill)"/><clipPath id="g1-clip"><path d="M300 130 L80 370 A220 60 0 0 0 520 370 Z"/></clipPath><g clip-path="url(#g1-clip)"><line x1="300" y1="130" x2="82" y2="378.2" stroke="#8c6a33" stroke-opacity="0.22" stroke-width="1.2"/><line x1="300" y1="130" x2="88.2" y2="386.2" stroke="#8c6a33" stroke-opacity="0.22" stroke-width="1.2"/><line x1="300" y1="130" x2="98.2" y2="393.9" stroke="#8c6a33" stroke-opacity="0.22" stroke-width="1.2"/><line x1="300" y1="130" x2="112" y2="401.2" stroke="#8c6a33" stroke-opacity="0.22" stroke-width="1.2"/><line x1="300" y1="130" x2="129.3" y2="407.9" stroke="#8c6a33" stroke-opacity="0.22" stroke-width="1.2"/><line x1="300" y1="130" x2="149.8" y2="413.9" stroke="#8c6a33" stroke-opacity="0.22" stroke-width="1.2"/><line x1="300" y1="130" x2="173.1" y2="419" stroke="#8c6a33" stroke-opacity="0.22" stroke-width="1.2"/><line x1="300" y1="130" x2="198.8" y2="423.3" stroke="#8c6a33" stroke-opacity="0.22" stroke-width="1.2"/><line x1="300" y1="130" x2="226.3" y2="426.5" stroke="#8c6a33" stroke-opacity="0.22" stroke-width="1.2"/><line x1="300" y1="130" x2="255.2" y2="428.7" stroke="#8c6a33" stroke-opacity="0.22" stroke-width="1.2"/><line x1="300" y1="130" x2="285" y2="429.9" stroke="#8c6a33" stroke-opacity="0.22" stroke-width="1.2"/><line x1="300" y1="130" x2="315" y2="429.9" stroke="#8c6a33" stroke-opacity="0.22" stroke-width="1.2"/><line x1="300" y1="130" x2="344.8" y2="428.7" stroke="#8c6a33" stroke-opacity="0.22" stroke-width="1.2"/><line x1="300" y1="130" x2="373.7" y2="426.5" stroke="#8c6a33" stroke-opacity="0.22" stroke-width="1.2"/><line x1="300" y1="130" x2="401.2" y2="423.3" stroke="#8c6a33" stroke-opacity="0.22" stroke-width="1.2"/><line x1="300" y1="130" x2="426.9" y2="419" stroke="#8c6a33" stroke-opacity="0.22" stroke-width="1.2"/><line x1="300" y1="130" x2="450.2" y2="413.9" stroke="#8c6a33" stroke-opacity="0.22" stroke-width="1.2"/><line x1="300" y1="130" x2="470.7" y2="407.9" stroke="#8c6a33" stroke-opacity="0.22" stroke-width="1.2"/><line x1="300" y1="130" x2="488" y2="401.2" stroke="#8c6a33" stroke-opacity="0.22" stroke-width="1.2"/><line x1="300" y1="130" x2="501.8" y2="393.9" stroke="#8c6a33" stroke-opacity="0.22" stroke-width="1.2"/><line x1="300" y1="130" x2="511.8" y2="386.2" stroke="#8c6a33" stroke-opacity="0.22" stroke-width="1.2"/><line x1="300" y1="130" x2="518" y2="378.2" stroke="#8c6a33" stroke-opacity="0.22" stroke-width="1.2"/><path d="M286.3 145 A13.8 3.8 0 0 0 313.8 145" fill="none" stroke="#8c6a33" stroke-opacity="0.45" stroke-width="1.7"/><path d="M272.5 160 A27.5 7.5 0 0 0 327.5 160" fill="none" stroke="#8c6a33" stroke-opacity="0.45" stroke-width="1.7"/><path d="M258.8 175 A41.3 11.3 0 0 0 341.3 175" fill="none" stroke="#8c6a33" stroke-opacity="0.45" stroke-width="1.7"/><path d="M245 190 A55 15 0 0 0 355 190" fill="none" stroke="#8c6a33" stroke-opacity="0.45" stroke-width="1.7"/><path d="M231.3 205 A68.8 18.8 0 0 0 368.8 205" fill="none" stroke="#8c6a33" stroke-opacity="0.45" stroke-width="1.7"/><path d="M217.5 220 A82.5 22.5 0 0 0 382.5 220" fill="none" stroke="#8c6a33" stroke-opacity="0.45" stroke-width="1.7"/><path d="M203.8 235 A96.3 26.3 0 0 0 396.3 235" fill="none" stroke="#8c6a33" stroke-opacity="0.45" stroke-width="1.7"/><path d="M190 250 A110 30 0 0 0 410 250" fill="none" stroke="#8c6a33" stroke-opacity="0.45" stroke-width="1.7"/><path d="M176.3 265 A123.8 33.8 0 0 0 423.8 265" fill="none" stroke="#8c6a33" stroke-opacity="0.45" stroke-width="1.7"/><path d="M162.5 280 A137.5 37.5 0 0 0 437.5 280" fill="none" stroke="#8c6a33" stroke-opacity="0.45" stroke-width="1.7"/><path d="M148.8 295 A151.3 41.3 0 0 0 451.3 295" fill="none" stroke="#8c6a33" stroke-opacity="0.45" stroke-width="1.7"/><path d="M135 310 A165 45 0 0 0 465 310" fill="none" stroke="#8c6a33" stroke-opacity="0.45" stroke-width="1.7"/><path d="M121.3 325 A178.8 48.8 0 0 0 478.8 325" fill="none" stroke="#8c6a33" stroke-opacity="0.45" stroke-width="1.7"/><path d="M107.5 340 A192.5 52.5 0 0 0 492.5 340" fill="none" stroke="#8c6a33" stroke-opacity="0.45" stroke-width="1.7"/><path d="M93.8 355 A206.3 56.3 0 0 0 506.3 355" fill="none" stroke="#8c6a33" stroke-opacity="0.45" stroke-width="1.7"/><path d="M300 130 L80 370 A220 60 0 0 0 520 370 Z" fill="url(#g1-sheen)"/></g><path d="M80 370 A220 60 0 0 0 520 370" fill="none" stroke="#7a5a2e" stroke-width="4" stroke-linecap="round"/>
  <rect width="600" height="600" filter="url(#card-grain)"/>
</svg>
